<?xml version="1.0" standalone="no"?><!DOCTYPE svg PUBLIC "-//W3C//DTD SVG 1.1//EN" "http://www.w3.org/Graphics/SVG/1.1/DTD/svg11.dtd"><svg width="200" height="200" viewBox="0 0 200 200" version="1.1" xmlns="http://www.w3.org/2000/svg" xmlns:xlink="http://www.w3.org/1999/xlink"><defs><style type="text/css"><![CDATA[
@font-face { font-family: ifont; src: url(http://at.alicdn.com/t/font_1442373896_4754455.eot?#iefix) format(embedded-opentype), url(http://at.alicdn.com/t/font_1442373896_4754455.woff) format(woff), url(http://at.alicdn.com/t/font_1442373896_4754455.ttf) format(truetype), url(http://at.alicdn.com/t/font_1442373896_4754455.svg#ifont) format(svg); }

]]></style></defs><g class="transform-group"><g transform="scale(0.1953125, 0.1953125)"><path d="M948.39251 888.293225 562.639842 502.540558l385.752668-385.751644c12.831236-12.831236 12.855796-33.664727 0-46.5195-12.825097-12.82612-33.67803-12.841469-46.5195 0L516.120342 456.020034 130.367675 70.267367c-12.831236-12.831236-33.664727-12.855796-46.520523 0-12.825097 12.82612-12.840446 33.680077 0 46.5195l385.752668 385.752668L83.847152 888.293225c-12.847609 12.846586-12.837376 33.680077 0 46.518476 12.856819 12.855796 33.664727 12.855796 46.5195 0.002047l385.752668-385.752668 385.752668 385.752668c12.847609 12.847609 33.682124 12.8384 46.5195-0.002047C961.247282 921.956929 961.248306 901.147998 948.39251 888.293225z" fill="#000000"></path></g></g></svg>